<svg width="84" height="84" viewBox="0 0 84 84" fill="none" xmlns="http://www.w3.org/2000/svg">
<rect x="2" y="2" width="80" height="80" rx="12" fill="white"/>
<rect x="2" y="2" width="80" height="80" rx="12" stroke="#282828" stroke-width="4"/>
<rect x="12" y="12" width="60" height="60" rx="8" fill="#282828"/>
<path d="M32.252 46L29.132 37.06H30.908L33.356 44.464H33.008L35.456 37.06H37.232L34.124 46H32.252ZM41.3998 46.144C40.8318 46.144 40.3038 46.04 39.8158 45.832C39.3358 45.624 38.9198 45.336 38.5678 44.968C38.2238 44.592 37.9718 44.156 37.8118 43.66L39.1678 43.072C39.3838 43.584 39.6958 43.988 40.1038 44.284C40.5118 44.572 40.9718 44.716 41.4838 44.716C41.7718 44.716 42.0198 44.672 42.2278 44.584C42.4438 44.488 42.6078 44.36 42.7198 44.2C42.8398 44.04 42.8998 43.848 42.8998 43.624C42.8998 43.36 42.8198 43.144 42.6598 42.976C42.5078 42.8 42.2758 42.664 41.9638 42.568L40.2478 42.016C39.5518 41.8 39.0278 41.476 38.6758 41.044C38.3238 40.612 38.1478 40.104 38.1478 39.52C38.1478 39.008 38.2718 38.556 38.5198 38.164C38.7758 37.772 39.1278 37.468 39.5758 37.252C40.0318 37.028 40.5518 36.916 41.1358 36.916C41.6718 36.916 42.1638 37.012 42.6118 37.204C43.0598 37.388 43.4438 37.648 43.7638 37.984C44.0918 38.312 44.3358 38.7 44.4958 39.148L43.1518 39.748C42.9758 39.3 42.7118 38.956 42.3598 38.716C42.0078 38.468 41.5998 38.344 41.1358 38.344C40.8638 38.344 40.6238 38.392 40.4158 38.488C40.2078 38.576 40.0438 38.704 39.9238 38.872C39.8118 39.032 39.7558 39.224 39.7558 39.448C39.7558 39.696 39.8358 39.916 39.9958 40.108C40.1558 40.292 40.3998 40.436 40.7278 40.54L42.3718 41.056C43.0838 41.288 43.6158 41.608 43.9678 42.016C44.3278 42.424 44.5078 42.928 44.5078 43.528C44.5078 44.04 44.3758 44.492 44.1118 44.884C43.8478 45.276 43.4838 45.584 43.0198 45.808C42.5558 46.032 42.0158 46.144 41.3998 46.144ZM45.9773 46V37.06H49.7453C50.3373 37.06 50.8413 37.164 51.2573 37.372C51.6813 37.572 52.0053 37.86 52.2293 38.236C52.4613 38.604 52.5773 39.052 52.5773 39.58C52.5773 39.988 52.4653 40.372 52.2413 40.732C52.0253 41.084 51.6773 41.376 51.1973 41.608V40.852C51.6373 41.02 51.9853 41.228 52.2413 41.476C52.4973 41.724 52.6773 42 52.7813 42.304C52.8853 42.608 52.9373 42.928 52.9373 43.264C52.9373 44.12 52.6533 44.792 52.0853 45.28C51.5253 45.76 50.7453 46 49.7453 46H45.9773ZM47.6093 44.56H49.9133C50.3373 44.56 50.6733 44.444 50.9213 44.212C51.1773 43.972 51.3053 43.656 51.3053 43.264C51.3053 42.872 51.1773 42.556 50.9213 42.316C50.6733 42.076 50.3373 41.956 49.9133 41.956H47.6093V44.56ZM47.6093 40.528H49.8293C50.1653 40.528 50.4333 40.432 50.6333 40.24C50.8333 40.04 50.9333 39.784 50.9333 39.472C50.9333 39.16 50.8333 38.912 50.6333 38.728C50.4333 38.544 50.1653 38.452 49.8293 38.452H47.6093V40.528Z" fill="white"/>
</svg>
